<?xml version="1.0" encoding="utf-8"?>
<!DOCTYPE svg PUBLIC "-//W3C//DTD SVG 1.1//EN" "http://www.w3.org/Graphics/SVG/1.1/DTD/svg11.dtd">
<svg version="1.1" id="图形" xmlns="http://www.w3.org/2000/svg" xmlns:xlink="http://www.w3.org/1999/xlink" x="0px" y="0px" width="1024px" height="1024px" viewBox="0 0 1024 1024" enable-background="new 0 0 1024 1024" xml:space="preserve">
  <path fill="#ffffff" d="M713.128585 640.542439 375.857951 303.29678l341.666341-341.666341-0.024976-0.024976c11.164098-11.563707 18.057366-27.323317 18.057366-44.681366 0-35.565268-28.821854-64.362146-64.362146-64.362146-17.333073 0-33.092683 6.868293-44.681366 18.057366l0-0.024976L240.290341 256.817171l0.024976 0.024976c-12.113171 11.713561-19.705756 28.122537-19.705756 46.329756 0 0.049951 0 0.099902 0 0.149854 0 0.024976 0 0.074927 0 0.124878 0 18.182244 7.56761 34.59122 19.705756 46.30478l-0.024976 0.024976L626.513171 735.99922l0.174829-0.174829c11.563707 11.089171 27.24839 17.907512 44.506537 17.907512 35.540293 0 64.362146-28.821854 64.362146-64.362146C735.556683 669.838829 726.840195 652.330927 713.128585 640.542439z" transform="translate(0, 812) scale(1, -1)"/>
</svg>
